<svg width="286" height="79" viewBox="0 0 286 79" fill="none" xmlns="http://www.w3.org/2000/svg">
<g clip-path="url(#clip0_1_2)">
<path d="M44.1 20.3C46.3 22.6 47.4 25.9 47.4 30.1V47.7C47.4 48.6 47.1 49.4 46.5 50C45.9 50.6 45.2 50.9 44.2 50.9C43.3 50.9 42.5 50.6 42 50C41.4 49.4 41.1 48.7 41.1 47.7V30.1C41.1 27.6 40.5 25.7 39.2 24.4C37.9 23.1 36.3 22.5 34.2 22.5C32.1 22.5 30.3 23.2 28.9 24.7C27.5 26.2 26.8 28.1 26.8 30.4V47.8C26.8 48.7 26.5 49.5 25.9 50.1C25.3 50.7 24.6 51 23.6 51C22.7 51 21.9 50.7 21.4 50.1C20.8 49.5 20.5 48.8 20.5 47.8V30.1C20.5 27.6 19.9 25.7 18.6 24.4C17.3 23.1 15.7 22.5 13.6 22.5C11.4 22.5 9.6 23.2 8.3 24.7C7 26.1 6.3 28 6.3 30.3V47.7C6.3 48.6 6 49.4 5.4 50C4.8 50.6 4.1 50.9 3.1 50.9C2.2 50.9 1.4 50.6 0.9 50C0.3 49.4 0 48.6 0 47.7V20.3C0 19.4 0.3 18.6 0.9 18C1.5 17.4 2.2 17.1 3.1 17.1C4 17.1 4.7 17.4 5.3 17.9C5.9 18.5 6.2 19.2 6.2 20.1C7.3 19 8.5 18.2 10 17.6C11.5 17 13.1 16.7 14.8 16.7C16.9 16.7 18.8 17.1 20.4 18C22.1 18.8 23.4 20 24.5 21.6C25.7 20.1 27.3 18.9 29.1 18C30.9 17.1 33 16.7 35.3 16.7C39 16.8 41.9 17.9 44.1 20.3ZM81.7 19.1C84.3 20.6 86.3 22.7 87.8 25.3C89.3 27.9 90 30.8 90 34V47.7C90 48.6 89.7 49.4 89.1 50C88.5 50.6 87.8 50.9 86.9 50.9C86 50.9 85.2 50.6 84.7 50C84.1 49.4 83.8 48.7 83.8 47.7V45.4C82.4 47.2 80.6 48.5 78.6 49.5C76.5 50.5 74.3 51 71.9 51C68.9 51 66.3 50.3 63.9 48.8C61.5 47.3 59.6 45.3 58.2 42.7C56.8 40.1 56.1 37.2 56.1 34C56.1 30.8 56.8 27.9 58.3 25.3C59.8 22.7 61.8 20.6 64.4 19.1C67 17.6 69.9 16.9 73.1 16.9C76.3 16.8 79.2 17.6 81.7 19.1ZM78.7 44C80.4 43 81.7 41.6 82.6 39.9C83.5 38.2 84 36.2 84 34C84 31.8 83.5 29.8 82.6 28.1C81.7 26.3 80.4 24.9 78.7 23.9C77 22.9 75.2 22.4 73.1 22.4C71 22.4 69.2 22.9 67.5 23.9C65.8 24.9 64.5 26.3 63.6 28.1C62.6 29.9 62.2 31.8 62.2 34C62.2 36.2 62.7 38.1 63.6 39.9C64.6 41.6 65.9 43 67.5 44C69.2 45 71 45.5 73.1 45.5C75.2 45.5 77 45 78.7 44ZM115.7 45.5C116.2 46.1 116.5 46.8 116.5 47.7C116.5 48.6 116.2 49.3 115.5 49.9C114.8 50.5 113.9 50.8 112.9 50.8H111.8C109.8 50.8 107.9 50.3 106.3 49.2C104.7 48.1 103.3 46.7 102.4 44.9C101.5 43.1 101 41.1 101 38.8V23.6H98C97.1 23.6 96.4 23.4 95.9 22.9C95.4 22.4 95.1 21.8 95.1 21C95.1 20.2 95.4 19.5 95.9 19C96.4 18.5 97.1 18.3 98 18.3H100.8V9.4C100.8 8.5 101.1 7.8 101.7 7.2C102.3 6.6 103 6.3 103.9 6.3C104.8 6.3 105.5 6.6 106.1 7.2C106.7 7.8 107 8.5 107 9.4V18.3H112.2C113.1 18.3 113.8 18.5 114.3 19C114.8 19.5 115.1 20.2 115.1 21C115.1 21.7 114.8 22.4 114.3 22.9C113.8 23.4 113.1 23.6 112.2 23.6H107V38.8C107 40.4 107.5 41.8 108.4 42.9C109.3 44 110.4 44.6 111.7 44.6H113.8C114.165 44.5898 114.528 44.666 114.858 44.8224C115.188 44.9788 115.477 45.211 115.7 45.5ZM145.8 17.7C147 18.4 147.7 19.2 147.7 20.2C147.7 20.5 147.7 20.7 147.6 20.8C147.2 22.1 146.4 22.8 145.1 22.8C144.9 22.8 144.6 22.8 144.2 22.7C142.6 22.4 141.2 22.3 140.2 22.3C137.2 22.3 134.9 23 133 24.3C131.2 25.7 130.3 27.5 130.3 29.8V47.8C130.3 48.8 130 49.5 129.5 50.1C129 50.6 128.2 50.9 127.2 50.9C126.2 50.9 125.5 50.6 124.9 50.1C124.4 49.6 124.1 48.8 124.1 47.8V20.2C124.1 19.2 124.4 18.5 124.9 17.9C125.4 17.4 126.2 17.1 127.2 17.1C129.3 17.1 130.3 18.1 130.3 20.2V21.4C131.5 20 133.1 18.8 134.9 18C136.7 17.2 138.6 16.8 140.7 16.8C142.9 16.7 144.6 17 145.8 17.7ZM160.8 4.7C161.6 5.5 162 6.5 162 7.6C162 8.7 161.6 9.7 160.8 10.5C160 11.3 159 11.7 157.9 11.7C156.8 11.7 155.8 11.3 155 10.5C154.2 9.7 153.8 8.7 153.8 7.6C153.8 6.5 154.2 5.5 155 4.7C155.8 3.9 156.8 3.5 157.9 3.5C159 3.5 160 3.9 160.8 4.7ZM155.6 17.9C156.2 17.3 156.9 17 157.8 17C158.7 17 159.5 17.3 160.1 17.9C160.7 18.5 161 19.2 161 20.2V47.6C161 48.5 160.7 49.3 160.1 49.9C159.5 50.5 158.8 50.8 157.8 50.8C156.9 50.8 156.1 50.5 155.6 49.9C155 49.3 154.7 48.6 154.7 47.6V20.2C154.7 19.3 155 18.5 155.6 17.9ZM199.2 48.2C199.2 48.9 198.9 49.6 198.4 50C197.9 50.5 197.2 50.7 196.4 50.7C195.4 50.7 194.7 50.4 194.2 49.7L184.4 38L175.1 49.7C174.5 50.4 173.7 50.7 172.9 50.7C172.1 50.7 171.4 50.5 171 50C170.5 49.5 170.3 48.9 170.3 48.2C170.3 47.4 170.6 46.6 171.2 45.9L180.8 33.9L170.6 21.9C170 21.2 169.7 20.4 169.7 19.6C169.7 18.9 169.9 18.3 170.4 17.8C170.9 17.3 171.5 17.1 172.4 17.1C173.4 17.1 174.2 17.5 174.7 18.1L184.8 30.2L193.9 18.1C194.4 17.4 195.2 17.1 196.2 17.1C197 17.1 197.7 17.4 198.1 17.9C198.6 18.4 198.8 19 198.8 19.8C198.8 20.7 198.5 21.5 197.9 22.3L188.6 34.4L198.4 46.1C198.9 46.7 199.2 47.4 199.2 48.2Z" fill="black"/>
<path d="M45.7815 66.6H46.3V78.3H45.4808L41.727 72.1398L41.7271 72.1397L41.7206 72.1296C40.8286 70.7421 40.0445 69.3679 39.4596 68.003L39.3297 67.7H39H38.9H38.3903L38.4001 68.2096L38.5 73.4049V78.3H38V66.6H38.9192L42.6713 72.7573C42.6716 72.7577 42.6719 72.7582 42.6721 72.7587C43.5648 74.2466 44.2555 75.53 44.846 76.8095L45.7996 76.5808L45.6004 71.3998L45.7815 66.6ZM64.5 67.5V67H64H60.7656L60.737 66.6H68.8V67H65.6H65.1V67.5V78.3H64.5V67.5ZM84.6 72.4H84.1V72.9V77.4V77.9H84.6H89.4V78.3H83.5V66.6H89.1V67H84.6H84.1V67.5V71.5V72H84.6H88.9V72.4H84.6ZM109.321 72.3333L107.955 72.8585L109.356 73.2789C110.099 73.5017 110.627 74.1787 110.911 75.5048L110.912 75.5085C110.999 75.9007 111.078 76.2718 111.151 76.6147C111.243 77.0422 111.324 77.4257 111.401 77.7515C111.454 77.9814 111.509 78.1998 111.568 78.4H111.018C111.013 78.3877 111.008 78.3748 111.004 78.3613C110.949 78.208 110.887 78.0064 110.82 77.7579C110.687 77.2617 110.54 76.6 110.391 75.8079L110.39 75.7997L110.388 75.7915C110.18 74.855 109.877 74.1414 109.373 73.6534C108.857 73.1532 108.199 72.9558 107.436 72.9013L107.418 72.9H107.4H105.9H105.4V73.4V78.4H104.8V66.8027C105.504 66.6698 106.394 66.6 107.3 66.6C108.845 66.6 109.802 66.891 110.471 67.4763L110.475 67.4796C111.04 67.9641 111.3 68.6112 111.3 69.5C111.3 70.9604 110.46 71.8951 109.321 72.3333ZM105.4 72.1V72.6H105.9H107.5C108.447 72.6 109.271 72.3209 109.866 71.8019C110.466 71.2785 110.8 70.5392 110.8 69.7C110.8 68.7342 110.481 67.9741 109.849 67.4711C109.237 66.9847 108.406 66.8 107.5 66.8C106.66 66.8 106.104 66.9049 105.742 67.0257L105.4 67.1396V67.5V72.1ZM134.782 66.6H135.3V78.3H134.481L130.727 72.1398L130.727 72.1397L130.721 72.1296C129.829 70.7421 129.045 69.3679 128.46 68.003L128.33 67.7H128H127.9H127.39L127.4 68.2096L127.5 73.4V73.4049V78.3H127V66.6H127.919L131.671 72.7573C131.672 72.7577 131.672 72.7581 131.672 72.7586C132.565 74.2465 133.255 75.5299 133.846 76.8095L134.8 76.5808L134.6 71.3997L134.782 66.6ZM152.3 72.4H151.8V72.9V77.4V77.9H152.3H157.1V78.3H151.2V66.6H156.8V67H152.3H151.8V67.5V71.5V72H152.3H156.6V72.4H152.3ZM175.1 67.5V67H174.6H171.4V66.6H179.4V67H176.2H175.7V67.5V78.3H175.1V67.5ZM21.8 66.6V78.3H21.2V66.6H21.8Z" fill="black" stroke="black"/>
<path d="M250.9 69C269.954 69 285.4 53.5538 285.4 34.5C285.4 15.4462 269.954 0 250.9 0C231.846 0 216.4 15.4462 216.4 34.5C216.4 53.5538 231.846 69 250.9 69Z" fill="url(#paint0_linear_1_2)"/>
<path d="M270.6 49.7C270.6 49.7 264.5 53.7 260 47.5L252.6 36L258.5 30.8C258.5 30.8 264 30.1 264.1 30.2C264.3 30.3 270.2 36.2 270.2 36.2L272.6 40C272.7 40 276 45.1 270.6 49.7Z" fill="url(#paint1_linear_1_2)"/>
<path d="M256.9 16.1C255.3 13.8 254 12.8 250.6 12.8C247.2 12.8 244.8 15.9 244.8 15.9L229.3 39.9C225.8 46 231.3 49.8 231.3 49.8C238.7 53.5 242 47.3 242 47.3C248.1 38 252.6 36.2 252.6 36.2C262.9 29.5 270.3 36.3 270.3 36.3L256.9 16.1Z" fill="white"/>
</g>
<defs>
<linearGradient id="paint0_linear_1_2" x1="226.517" y1="58.907" x2="275.317" y2="10.107" gradientUnits="userSpaceOnUse">
<stop stop-color="#EE3600"/>
<stop offset="1" stop-color="#FF6100"/>
</linearGradient>
<linearGradient id="paint1_linear_1_2" x1="270.656" y1="49.674" x2="257.753" y2="31.246" gradientUnits="userSpaceOnUse">
<stop stop-color="white"/>
<stop offset="0.555" stop-color="#DEDFE0"/>
<stop offset="1" stop-color="#808080"/>
</linearGradient>
<clipPath id="clip0_1_2">
<rect width="285.4" height="78.8" fill="white"/>
</clipPath>
</defs>
</svg>
